<?xml version="1.0" standalone="no"?>
<!DOCTYPE svg PUBLIC "-//W3C//DTD SVG 20010904//EN"
 "http://www.w3.org/TR/2001/REC-SVG-20010904/DTD/svg10.dtd">
<svg version="1.0" xmlns="http://www.w3.org/2000/svg"
 width="1200.000000pt" height="1200.000000pt" viewBox="0 0 1200.000000 1200.000000"
 preserveAspectRatio="xMidYMid meet">
<metadata>
Created by potrace 1.11, written by Peter Selinger 2001-2013
</metadata>
<g transform="translate(0.000000,1200.000000) scale(0.100000,-0.100000)"
fill="#000000" stroke="none">
<path d="M0 6003 l0 -1071 250 0 250 0 0 446 c0 246 2 618 3 827 l2 380 450 0
450 -1 41 -23 c119 -67 112 -244 -12 -297 -33 -15 -83 -17 -349 -18 -199 -1
-310 -5 -310 -11 -1 -5 -13 -36 -28 -68 -15 -32 -27 -59 -27 -61 0 -2 -17 -42
-39 -88 -21 -45 -49 -108 -62 -138 -13 -30 -31 -70 -40 -89 l-16 -34 36 -37
c20 -20 79 -83 131 -140 52 -56 123 -132 158 -169 35 -36 109 -115 165 -175
56 -60 141 -150 189 -200 48 -50 88 -94 88 -98 0 -4 158 -7 351 -7 l351 1 -24
26 c-12 15 -41 45 -63 68 -22 23 -105 110 -185 194 -80 84 -163 172 -185 196
-59 62 -313 329 -320 335 -3 3 33 6 81 5 47 -1 87 1 90 3 2 2 22 5 45 7 112 9
272 88 356 177 15 15 29 25 31 22 5 -5 8 -26 16 -120 2 -22 4 -40 5 -40 2 0 5
-13 7 -30 8 -52 45 -157 85 -240 59 -123 129 -210 290 -361 14 -13 31 -24 37
-24 7 0 12 -4 12 -8 0 -10 142 -96 200 -120 75 -32 85 -36 95 -38 6 -1 12 -3
15 -4 16 -6 111 -28 155 -36 62 -10 291 -12 343 -2 26 5 65 11 87 14 22 4 46
11 53 16 6 6 12 8 12 5 0 -18 205 73 285 126 73 49 90 61 134 102 87 80 138
139 219 257 l22 33 0 -282 0 -282 738 2 c684 3 742 4 810 21 39 11 72 23 72
28 0 4 7 8 14 8 30 0 138 73 199 133 91 91 148 181 170 270 4 15 11 27 15 27
4 0 21 -20 37 -44 27 -41 172 -189 220 -226 50 -39 115 -80 124 -80 6 0 11 -4
11 -8 0 -4 17 -14 38 -21 20 -8 39 -17 42 -21 6 -7 166 -62 195 -66 11 -1 20
-3 20 -4 0 -2 37 -7 125 -18 115 -14 265 -5 390 24 42 9 55 12 58 14 1 2 5 3
10 4 14 3 127 48 147 59 11 6 34 18 50 26 121 62 304 233 384 357 28 43 55 84
61 91 5 7 10 18 10 25 0 8 6 22 14 33 13 20 48 122 61 180 14 63 16 71 21 109
14 104 10 220 -11 356 -13 80 -59 203 -111 297 -19 35 -33 66 -32 70 4 11 618
11 624 1 3 -5 5 -23 5 -41 -1 -17 -1 -41 0 -52 1 -24 1 -112 0 -140 -1 -11 0
-147 1 -303 2 -156 -1 -282 -6 -282 -5 0 -4 -6 1 -12 11 -15 10 -99 -1 -116
-4 -7 -4 -12 1 -12 4 0 8 -77 8 -170 0 -94 -4 -170 -9 -170 -5 0 -4 -6 1 -12
11 -15 10 -99 -1 -116 -4 -7 -4 -12 1 -12 4 0 8 -46 8 -102 l0 -103 250 0 249
0 1 825 0 825 257 0 c141 0 258 2 260 5 2 3 12 24 23 48 10 23 22 42 27 42 4
0 7 3 6 8 -3 10 56 132 63 132 4 0 7 -402 7 -892 1 -491 1 -916 1 -944 l1 -51
923 2 c507 1 933 5 947 8 14 4 39 9 55 13 101 20 258 126 342 229 41 51 101
154 107 184 2 9 6 23 9 31 28 77 31 273 4 366 -19 66 -74 178 -98 200 -10 9
-19 21 -19 26 0 20 -203 189 -225 188 -3 -1 -20 6 -38 14 -33 15 -81 30 -132
42 -16 4 -218 9 -447 10 -464 3 -462 3 -514 70 -50 64 -43 176 15 222 60 47
41 46 615 46 l539 1 88 175 c48 96 92 180 96 185 5 6 20 35 35 65 25 53 25 55
6 60 -43 11 -1333 3 -1395 -9 -106 -20 -213 -70 -292 -136 -35 -30 -91 -87
-91 -94 0 -3 -8 -11 -17 -17 -17 -10 -18 -3 -16 119 2 72 -1 133 -6 136 -5 4
-492 6 -1082 6 l-1073 0 -12 -23 c-6 -13 -17 -29 -23 -35 -6 -6 -11 -19 -11
-28 0 -10 -3 -19 -8 -21 -4 -1 -38 -65 -76 -140 -38 -76 -72 -138 -76 -138 -4
0 -26 20 -49 45 -130 139 -352 269 -512 298 -13 3 -35 8 -49 11 -92 21 -268
27 -378 14 -291 -35 -557 -190 -738 -431 l-44 -59 -10 27 c-5 14 -10 32 -10
39 0 7 -3 16 -7 20 -5 4 -8 11 -8 14 0 12 -62 116 -84 142 -70 82 -165 162
-224 189 -23 11 -44 19 -47 18 -3 0 -16 6 -30 13 -28 15 -75 28 -140 37 -25 3
-362 7 -750 7 l-705 0 -5 -284 c-3 -185 -8 -278 -14 -265 -43 92 -201 265
-319 348 -60 42 -197 122 -207 120 -3 0 -16 4 -30 9 -180 72 -442 91 -640 46
-25 -5 -55 -12 -68 -14 -78 -15 -240 -93 -337 -163 -65 -46 -212 -193 -255
-253 -32 -45 -50 -53 -50 -22 0 8 -4 22 -9 32 -4 9 -18 40 -31 67 -12 28 -42
77 -67 110 -44 57 -149 155 -176 164 -6 2 -14 7 -17 11 -11 13 -138 66 -180
74 -14 3 -38 8 -55 12 -16 4 -355 7 -753 8 l-722 1 0 -1072z m3072 572 c88
-18 191 -63 248 -110 182 -149 254 -327 226 -555 -7 -55 -46 -170 -58 -170 -5
0 -6 -4 -3 -10 3 -5 1 -10 -4 -10 -6 0 -11 -5 -11 -11 0 -12 -64 -94 -95 -122
-56 -51 -133 -104 -157 -109 -7 -2 -15 -5 -18 -8 -3 -3 -34 -15 -70 -25 -93
-29 -260 -27 -352 3 -200 65 -368 246 -404 434 -28 151 12 348 91 448 39 50
141 147 170 163 102 55 149 72 225 82 25 4 46 8 48 9 4 5 130 -2 164 -9z
m2297 -9 c65 -34 93 -83 92 -158 -1 -59 -31 -109 -85 -139 -38 -21 -49 -22
-352 -23 l-312 0 -18 -41 c-26 -60 -59 -133 -90 -200 -15 -33 -28 -62 -29 -65
0 -3 -10 -25 -21 -50 -11 -25 -21 -48 -22 -53 -1 -4 -8 -20 -17 -37 -8 -16
-15 -33 -15 -37 0 -4 183 -8 407 -7 225 0 422 -3 439 -8 44 -11 101 -68 113
-114 19 -74 -8 -141 -75 -184 l-45 -28 -455 -1 -454 -1 0 578 c0 318 2 581 4
583 2 2 206 4 453 3 413 0 451 -2 482 -18z m1661 -6 c58 -15 180 -70 180 -81
0 -5 6 -9 13 -9 7 0 20 -8 28 -17 9 -10 27 -27 40 -39 36 -31 91 -94 82 -94
-5 0 -3 -4 3 -8 10 -7 41 -62 62 -112 55 -129 42 -333 -30 -471 -64 -123 -216
-249 -348 -288 -195 -58 -425 -13 -560 109 -19 17 -40 35 -46 38 -5 4 -27 30
-47 57 -20 28 -41 55 -46 61 -15 19 -51 106 -51 125 0 11 -3 19 -7 19 -14 0
-22 184 -10 248 7 43 39 146 47 152 3 3 18 25 32 50 34 58 107 132 177 179 81
54 136 76 216 87 22 4 41 8 43 9 8 8 182 -4 222 -15z m3270 -712 c82 -45 169
-75 240 -83 30 -4 223 -7 429 -7 206 -1 390 -5 410 -10 137 -35 160 -227 37
-304 -30 -18 -57 -19 -616 -20 l-585 -2 -59 -116 c-32 -64 -61 -114 -63 -112
-4 4 -5 349 -3 742 l0 92 73 -72 c40 -41 101 -88 137 -108z"/>
</g>
</svg>
