<?xml version="1.0" encoding="utf-8"?>
<!-- Generator: Adobe Illustrator 16.0.3, SVG Export Plug-In . SVG Version: 6.00 Build 0)  -->
<!DOCTYPE svg PUBLIC "-//W3C//DTD SVG 1.1//EN" "http://www.w3.org/Graphics/SVG/1.1/DTD/svg11.dtd">
<svg version="1.1" id="Layer_1" xmlns="http://www.w3.org/2000/svg" xmlns:xlink="http://www.w3.org/1999/xlink" x="0px" y="0px"
	 width="600px" height="400px" viewBox="0 0 600 400" enable-background="new 0 0 600 400" xml:space="preserve">
<g>
	<path d="M590.157,197.246c-6.587-6.421-14.512-9.633-23.799-9.633h-34.42c-2.418,0-4.454-0.817-6.114-2.441
		c-1.668-1.634-2.494-3.622-2.494-5.972c0-2.344,0.826-4.337,2.494-5.979c1.66-1.622,3.696-2.434,6.114-2.434h51.641l12.517-24.479
		h-64.157c-9.298,0-17.223,3.206-23.8,9.622c-1.393,1.363-2.604,2.789-3.694,4.271v-13.949h-25.022v0.023h-83.253l-10.067,19.692
		c-1.071-1.228-2.217-2.458-3.425-3.634c-10.69-10.463-23.6-15.693-38.727-15.693c-15.135,0-28.049,5.23-38.74,15.693
		c-3.031,2.963-5.618,6.112-7.788,9.426c-1.351-5.94-4.346-11.208-9.03-15.794c-6.582-6.434-14.499-9.639-23.776-9.639H196.53
		v28.588c-2.519-4.621-5.814-8.913-9.888-12.898c-10.694-10.463-23.614-15.689-38.737-15.689c-15.126,0-28.029,5.226-38.73,15.689
		c-3.232,3.157-5.954,6.507-8.209,10.053c-1.313-6.051-4.325-11.433-9.099-16.104c-6.575-6.434-14.502-9.639-23.788-9.639H0v107.102
		h25.027v-82.64H68.09c2.406,0,4.436,0.823,6.109,2.458c1.673,1.637,2.507,3.64,2.507,6c0,2.355-0.834,4.338-2.507,5.983
		c-1.673,1.634-3.703,2.461-6.109,2.461H39.131l-10.954,24.43l38.815,41.306h34.746l-39.254-41.306l5.63,0.028
		c9.274,0,17.189-3.205,23.771-9.646c0.444-0.445,0.851-0.911,1.284-1.379c0.294,14.26,5.618,26.464,16.007,36.618
		c10.701,10.467,23.604,15.686,38.73,15.686c15.123,0,28.043-5.219,38.737-15.686c4.074-3.985,7.369-8.278,9.888-12.897v28.583
		h68.085c9.277,0,17.194-3.207,23.776-9.635c4.563-4.462,7.514-9.583,8.905-15.336c2.198,3.38,4.828,6.587,7.913,9.612
		c10.691,10.457,23.605,15.68,38.74,15.68c15.127,0,28.036-5.224,38.727-15.68c10.688-10.464,16.044-23.09,16.044-37.875
		c0-11.03-2.976-20.85-8.925-29.45h32.317v82.623h25.063v-82.623h25.764l6.482-12.684v95.301h18.893l-0.011,0.021h6.701
		c0.042,0,0.069,0.017,0.125,0.017l-0.101,0.013h61.329c9.287,0,17.212-3.213,23.799-9.642c6.553-6.424,9.843-14.18,9.843-23.259
		C600,211.428,596.71,203.681,590.157,197.246z M168.96,220.465c-5.785,5.669-12.8,8.498-21.056,8.498
		c-8.147,0-15.126-2.829-20.98-8.498c-5.843-5.657-8.773-12.524-8.773-20.581c0-8.063,2.93-14.931,8.773-20.592
		c5.854-5.67,12.833-8.504,20.98-8.504c8.255,0,15.271,2.834,21.056,8.504c5.8,5.661,8.694,12.53,8.694,20.592
		C177.654,207.94,174.76,214.808,168.96,220.465z M264.621,212.149c2.399,0,4.438,0.824,6.101,2.452
		c1.673,1.628,2.514,3.618,2.514,5.95c0,2.354-0.84,4.344-2.514,5.977c-1.663,1.619-3.702,2.435-6.106,2.435h-43.059v-58.175h43.059
		c2.404,0,4.443,0.823,6.106,2.458c1.673,1.637,2.514,3.64,2.514,6c0,2.355-0.84,4.338-2.514,5.983
		c-1.663,1.634-3.702,2.461-6.101,2.461h-28.961l-10.958,24.458H264.621z M289.184,199.884L289.184,199.884L289.184,199.884
		L289.184,199.884z M365.011,220.782c-5.798,5.673-12.825,8.496-21.061,8.496c-8.147,0-15.14-2.823-20.986-8.496
		c-5.847-5.664-8.764-12.526-8.764-20.589c0-8.056,2.917-14.914,8.764-20.587c5.847-5.662,12.839-8.502,20.986-8.502
		c8.235,0,15.263,2.84,21.061,8.502c5.788,5.674,8.692,12.532,8.692,20.587C373.703,208.256,370.799,215.119,365.011,220.782z
		 M572.464,226.476c-1.681,1.63-3.712,2.447-6.105,2.447h-55.609v0.005l-6.305,12.39v-43.124c1.09,1.468,2.302,2.901,3.694,4.257
		c6.577,6.431,14.502,9.647,23.8,9.647h34.42c2.394,0,4.425,0.812,6.105,2.446c1.656,1.64,2.5,3.624,2.5,5.965
		C574.964,222.854,574.12,224.844,572.464,226.476z"/>
</g>
</svg>
